# xmcd
# 
# Track frame offsets:
#     183
#     11670
#     22770
#     31198
#     45448
#     57893
#     73458
#     85700
#     94500
#     105423
#     115108
#     126785
#     135485
#     151663
#     163193
#     174303
#     182740
#     197028
#     209555
#     225133
#     235648
#     244515
#     256015
#     265733
#     277500
#     286205
# 
# Disc length: 4027
# 
# Revision: 6
# Processed by: cddbd v1.5.2PL0 Copyright (c) Steve Scherf et al.
# Submitted via: BonkEnc v1.0.8
# 
DISCID=3c0fb91a
DTITLE=Henri Dès - La glace au citron
DYEAR=2002
DGENRE=Chanson
TTITLE0=La glace au citron
TTITLE1=Le courant d'air
TTITLE2=Matin chagrin
TTITLE3=J'ai plus faim
TTITLE4=Le pantalon
TTITLE5=Mi aout
TTITLE6=La fourmi amoureuse
TTITLE7=La si do des crapauds
TTITLE8=Le voyage
TTITLE9=Joyeux anniversaire
TTITLE10=Grand maman
TTITLE11=Boum badaboum
TTITLE12=Dodo
TTITLE13=La glace au citron (instrumental)
TTITLE14=Le courant d'air (instrumental)
TTITLE15=Matin chagrin (instrumental)
TTITLE16=J'ai plus faim (instrumental)
TTITLE17=Le pantalon (instrumental)
TTITLE18=Mi aout (instrumental)
TTITLE19=La fourmi amoureuse (instrumental)
TTITLE20=La si do des crapauds (instrumental)
TTITLE21=Le voyage (instrumental)
TTITLE22=Joyeux anniversaire (instrumental)
TTITLE23=Grand maman (instrumental)
TTITLE24=Boum badaboum (instrumental)
TTITLE25=Dodo (instrumental)
EXTD=YEAR: 2002 ID3G: 27
EXTT0=
EXTT1=
EXTT2=
EXTT3=
EXTT4=
EXTT5=
EXTT6=
EXTT7=
EXTT8=
EXTT9=
EXTT10=
EXTT11=
EXTT12=
EXTT13=
EXTT14=
EXTT15=
EXTT16=
EXTT17=
EXTT18=
EXTT19=
EXTT20=
EXTT21=
EXTT22=
EXTT23=
EXTT24=
EXTT25=
PLAYORDER=
